<?xml version="1.0" encoding="utf-8"?>
<!-- Generator: Adobe Illustrator 16.0.0, SVG Export Plug-In . SVG Version: 6.00 Build 0)  -->
<!DOCTYPE svg PUBLIC "-//W3C//DTD SVG 1.1//EN" "http://www.w3.org/Graphics/SVG/1.1/DTD/svg11.dtd">
<svg version="1.1" id="图层_1" xmlns="http://www.w3.org/2000/svg" xmlns:xlink="http://www.w3.org/1999/xlink" x="0px" y="0px"
	 width="200px" height="72px" viewBox="0 0 200 72" enable-background="new 0 0 200 72" xml:space="preserve">
<path fill="#444343" d="M76.898,38.465c0-1.56-0.245-1.864-1.101-2.323l-0.581-0.306c-0.184-0.061-0.244-0.092-0.244-0.213v-0.184
	c0-0.122,0.061-0.184,0.244-0.276l3.026-1.558c0.183-0.093,0.306-0.124,0.428-0.124c0.184,0,0.214,0.184,0.214,0.367l0.152,2.11
	h0.123c0.917-1.407,2.354-2.66,3.668-2.66c1.039,0,1.56,0.642,1.56,1.345c0,0.887-0.734,1.498-1.284,1.498
	c-0.336,0-0.642-0.123-0.888-0.245c-0.244-0.152-0.611-0.244-1.008-0.244c-0.489,0-1.284,0.306-1.804,1.285
	c-0.182,0.335-0.306,0.886-0.306,0.978v6.418c0,0.948,0.214,1.253,0.856,1.253h1.437c0.184,0,0.213,0.094,0.213,0.276v0.551
	c0,0.183-0.03,0.274-0.152,0.274c-0.183,0-1.589-0.092-3.24-0.092c-1.895,0-3.18,0.092-3.363,0.092
	c-0.123,0-0.183-0.061-0.183-0.306v-0.52c0-0.214,0.06-0.276,0.336-0.276h1.191c0.459,0,0.673-0.182,0.673-0.579
	c0.031-1.009,0.031-2.08,0.031-3.669V38.465z"/>
<path fill="#444343" d="M89.86,44.854c-1.406-1.683-1.682-2.812-1.682-4.982c0-1.56,0.825-3.516,2.63-4.921
	c1.589-1.224,3.087-1.468,4.096-1.468c1.681,0,3.362,0.857,4.279,1.774c1.375,1.405,2.079,2.995,2.079,4.98
	c0,3.334-2.996,6.727-6.755,6.727C93.04,46.963,91.144,46.382,89.86,44.854 M98.695,39.932c0-3.393-2.478-5.532-4.036-5.532
	c-0.825,0-1.62,0.182-2.354,0.978c-1.193,1.222-1.62,2.475-1.62,4.798c0,1.712,0.183,2.873,1.161,4.28
	c0.704,1.009,1.589,1.589,3.026,1.589C97.197,46.045,98.695,43.201,98.695,39.932"/>
<path fill="#444343" d="M107.378,46.075c-0.152-0.091-0.152-0.274-0.183-0.427l-0.521-2.904c-0.029-0.153,0.062-0.215,0.185-0.244
	l0.396-0.092c0.122-0.029,0.213,0.029,0.274,0.183l0.765,1.5c0.611,1.129,1.039,1.894,2.659,1.894c1.069,0,2.415-0.642,2.415-2.078
	c0-1.377-0.673-2.171-2.966-2.812c-1.803-0.521-3.605-1.47-3.605-3.883c0-2.11,1.986-3.73,4.279-3.73
	c1.467,0,2.262,0.367,2.812,0.643c0.459,0.214,0.521,0.367,0.551,0.55l0.458,2.139c0,0.123-0.061,0.215-0.214,0.275l-0.367,0.123
	c-0.122,0.029-0.183,0-0.275-0.153l-1.038-1.406c-0.367-0.581-0.948-1.192-2.141-1.192c-1.161,0-2.353,0.703-2.353,2.018
	c0,1.773,1.437,2.108,2.934,2.536c2.232,0.643,3.638,1.56,3.667,3.913c-0.029,2.478-2.047,4.036-4.646,4.036
	C108.968,46.963,107.745,46.352,107.378,46.075"/>
<path fill="#444343" d="M122.848,38.465c-0.062,0.275-0.093,0.765-0.093,1.467c0,2.995,1.896,5.258,4.34,5.258
	c1.866,0,3.181-1.069,3.7-2.078c0.061-0.122,0.184-0.185,0.274-0.152l0.398,0.212c0.092,0.031,0.152,0.124,0,0.459
	c-0.551,1.223-2.141,3.334-4.861,3.334c-1.742,0-3.668-0.521-4.8-2.173c-1.069-1.558-1.344-2.689-1.344-4.829
	c0-1.191,0.305-3.24,1.925-4.86c1.315-1.345,2.844-1.621,4.373-1.621c3.515,0,4.492,3.303,4.492,4.493
	c0,0.428-0.366,0.49-0.855,0.49H122.848z M127.707,37.548c0.58,0,0.825-0.152,0.825-0.428c0-0.704-0.366-2.72-2.354-2.72
	c-1.345,0-2.628,0.886-3.21,3.148H127.707z"/>
<path fill="#444343" d="M138.164,44.854c-1.406-1.683-1.682-2.812-1.682-4.982c0-1.56,0.825-3.516,2.63-4.921
	c1.589-1.224,3.087-1.468,4.095-1.468c1.681,0,3.364,0.857,4.279,1.774c1.377,1.405,2.08,2.995,2.08,4.98
	c0,3.334-2.995,6.727-6.757,6.727C141.343,46.963,139.448,46.382,138.164,44.854 M146.999,39.932c0-3.393-2.478-5.532-4.036-5.532
	c-0.824,0-1.62,0.182-2.354,0.978c-1.191,1.222-1.62,2.475-1.62,4.798c0,1.712,0.184,2.873,1.161,4.28
	c0.704,1.009,1.591,1.589,3.026,1.589C145.5,46.045,146.999,43.201,146.999,39.932"/>
<path fill="#444343" d="M167.237,44.945c0,0.489,0.274,0.642,0.672,0.642h0.978c0.274,0,0.336,0.093,0.336,0.274v0.49
	c0,0.213-0.062,0.336-0.243,0.336c-0.215,0-1.163-0.092-2.904-0.092c-1.56,0-2.538,0.092-2.751,0.092
	c-0.185,0-0.246-0.092-0.246-0.336v-0.49c0-0.213,0.094-0.274,0.398-0.274h0.887c0.336,0,0.581-0.152,0.61-0.705
	c0.031-0.792,0.062-1.771,0.062-2.565v-4.035c0-1.222,0-2.109-0.886-2.751c-0.735-0.55-1.467-0.55-2.232-0.55
	c-0.487,0-1.558,0.214-2.476,1.192c-0.611,0.672-0.702,1.497-0.702,2.08v6.327c0,0.824,0.091,1.008,0.732,1.008h0.764
	c0.245,0,0.306,0.093,0.306,0.305v0.521c0,0.183-0.061,0.274-0.213,0.274c-0.215,0-1.041-0.092-2.66-0.092
	c-1.558,0-2.537,0.092-2.721,0.092c-0.153,0-0.214-0.092-0.214-0.274v-0.552c0-0.182,0.061-0.274,0.307-0.274h0.885
	c0.399,0,0.613-0.093,0.613-0.611v-7.152c0-0.918-0.49-1.438-1.255-1.804l-0.243-0.122c-0.214-0.092-0.246-0.184-0.246-0.275v-0.153
	c0-0.153,0.123-0.244,0.276-0.306l2.628-1.466c0.245-0.123,0.429-0.215,0.552-0.215c0.153,0,0.214,0.124,0.244,0.367l0.214,1.864
	h0.061c0.887-1.099,2.661-2.231,4.188-2.231c0.917,0,1.863,0.184,2.599,0.673c0.917,0.611,1.682,2.14,1.682,2.905V44.945z"/>
<path fill="#444343" d="M177.998,37.486c0,1.589,0,6.204,0.032,7.153c0.03,0.519,0.152,0.946,0.795,0.946h1.374
	c0.275,0,0.336,0.094,0.336,0.276v0.52c0,0.183-0.061,0.306-0.183,0.306c-0.215,0-1.56-0.092-3.455-0.092
	c-1.956,0-3.18,0.092-3.453,0.092c-0.152,0-0.214-0.123-0.214-0.306v-0.52c0-0.214,0.062-0.276,0.397-0.276h1.467
	c0.336,0,0.643-0.214,0.672-0.765c0.032-0.947,0.032-6.204,0.032-7.978v-1.925c0-2.17-0.032-4.952-0.093-5.747
	c-0.061-1.039-0.55-1.529-1.528-1.834l-0.611-0.213c-0.152-0.062-0.184-0.092-0.184-0.153v-0.245c0-0.092,0.093-0.154,0.274-0.214
	c1.072-0.489,2.445-1.04,3.576-1.774c0.275-0.182,0.46-0.244,0.643-0.244c0.215,0,0.275,0.153,0.245,0.55
	c-0.03,1.682-0.123,8.04-0.123,9.721V37.486z"/>
<path fill="#444343" d="M184.083,53.351c0-0.642,0.673-1.19,1.406-1.19c0.58,0,1.131,0.274,1.407,0.336
	c0.213,0.029,0.457,0,0.641-0.186c0.459-0.55,2.019-4.033,2.445-5.226c-0.152-0.764-3.392-10.301-3.638-10.943
	c-0.366-0.764-0.642-1.284-1.436-1.284h-0.797c-0.212,0-0.243-0.091-0.243-0.276v-0.61c0-0.122,0.031-0.214,0.243-0.214
	c0.276,0,1.011,0.092,2.814,0.092c1.559,0,2.506-0.092,2.843-0.092c0.244,0,0.274,0.092,0.274,0.214v0.643
	c0,0.152-0.03,0.244-0.185,0.244h-0.58c-0.336,0-0.457,0.214-0.397,0.672c0.092,0.673,2.17,7.397,2.507,8.069h0.124
	c0.304-0.487,2.964-6.814,3.147-7.58c0.183-0.763-0.062-1.162-0.521-1.162h-0.489c-0.183,0-0.215-0.091-0.215-0.244v-0.612
	c0-0.152,0.032-0.244,0.185-0.244c0.398,0,1.04,0.092,2.507,0.092c0.824,0,1.528-0.092,1.865-0.092c0.183,0,0.183,0.123,0.183,0.244
	v0.58c0,0.185,0,0.276-0.152,0.276h-0.489c-0.336,0-0.765,0.153-1.071,0.55c-0.672,0.826-2.688,5.471-4.799,10.272
	c-1.496,3.391-2.689,6.235-3.239,7.243c-0.428,0.795-0.979,1.986-2.599,1.986C184.664,54.909,184.083,54.268,184.083,53.351"/>
<path fill="#444343" d="M31.796,35.52c-1.161,0-2.049,1.069-3.424,3.545c-1.039,1.834-1.528,3.698-1.528,4.953
	c0,0.612,0.366,1.343,1.07,1.343c0.917,0,1.895-0.641,3.148-3.024c0.948-1.773,1.864-4.372,1.864-5.503
	C32.927,36.101,32.621,35.52,31.796,35.52"/>
<path fill="#444343" d="M62.929,36.344c0-0.488-0.123-1.039-0.826-1.039c-1.161,0-2.476,2.781-2.935,4.769
	c0.521,0.031,1.895-0.368,2.782-1.223C62.439,38.393,62.929,37.353,62.929,36.344"/>
<path fill="#444343" d="M71.46,9.92C59.026-9.46,27.494,1.688,35.68,26.15C15.793,5.707-13.506,36.536,10.135,55.057
	c16.612,10.006,37.097,6.273,53.667,16.806C61.645,53.24,82.27,26.768,71.46,9.92 M24.195,26.656l-6.114,17.148
	c-0.306,0.856-0.275,1.314,0.306,1.314c0.733,0,1.804-1.1,2.2-1.499c0.092-0.09,0.184-0.09,0.275,0l0.337,0.369
	c0.061,0.091,0.092,0.181,0,0.335c-0.123,0.213-2.476,2.811-5.716,2.811c-0.642,0-1.315-0.761-1.315-1.283
	c0-0.519,0.552-1.985,0.856-2.842l4.8-13.878c0.397-1.161,0.305-1.925-0.581-1.925h-0.887c-0.214,0-0.274-0.123-0.244-0.275
	l0.183-0.611c0.061-0.184,0.123-0.214,0.306-0.214h5.38C24.256,26.104,24.348,26.288,24.195,26.656 M32.835,45.362
	c-1.192,1.283-2.538,1.771-4.494,1.771c-1.773,0-4.035-1.221-4.035-4.676c0-2.477,0.704-5.043,2.416-6.908
	c1.254-1.314,2.72-1.772,4.372-1.772c1.65,0,4.31,0.763,4.31,4.493C35.404,40.074,34.761,43.314,32.835,45.362 M50.964,42.642
	c-1.498,2.446-3.852,4.492-6.725,4.492c-1.04,0-1.621-0.426-2.231-0.978c-0.459-0.427-0.734-1.345-0.734-2.537
	c0-1.1,0.274-2.292,0.764-3.392c0.856-1.957,2.506-3.669,3.301-4.585l-0.183-0.214c-0.673,0.673-1.834,0.979-2.966,0.979h-1.497
	c-1.253,0-1.651,0.367-1.682,0.885c0.031,0.397,0.704,0.733,0.978,0.888c0.215,0.121,0.673,0.58,0.673,1.375
	s-0.367,1.252-1.346,1.252c-0.825,0-1.65-0.794-1.65-2.384c0-1.252,0.765-2.537,1.192-3.026c0.612-0.671,1.284-1.468,3.485-1.468
	c3.729,0,4.095-0.151,4.432-0.151c0.397,0,0.703,0.182,0.428,0.611c-1.682,2.66-2.537,3.791-2.537,7.427
	c0,2.018,0.825,2.995,1.589,2.995c1.315,0,2.078-0.519,2.567-1.223c1.253-1.803,1.529-3.087,1.529-5.257
	c0.092-1.07-0.122-1.559-0.458-1.864c-0.153-0.154-0.428-0.734-0.428-1.131c0-0.429,0.581-1.559,2.048-1.559
	c1.162,0,1.651,1.283,1.651,2.597C53.166,38.393,52.798,39.676,50.964,42.642 M55.011,43.712c0-2.263,0.978-5.502,3.699-7.794
	c1.498-1.284,3.301-2.14,5.104-2.14c1.682,0,2.384,0.948,2.384,2.108c0,1.711-1.008,2.965-2.781,3.975
	c-1.682,0.945-3.332,1.253-4.495,1.345c-0.121,0.273-0.244,1.068-0.244,1.925c0,1.069,0.612,1.987,1.651,1.987
	c1.497,0,2.599-0.825,3.301-1.589c0.061-0.093,0.152-0.153,0.245-0.093l0.489,0.336c0.123,0.093,0.123,0.185,0.061,0.307
	c-0.55,1.099-2.842,3.055-5.839,3.055C56.509,47.134,55.011,45.882,55.011,43.712"/>
</svg>
