<?xml version="1.0" encoding="utf-8"?>
<!-- Generator: Adobe Illustrator 16.0.0, SVG Export Plug-In . SVG Version: 6.00 Build 0)  -->
<!DOCTYPE svg PUBLIC "-//W3C//DTD SVG 1.1//EN" "http://www.w3.org/Graphics/SVG/1.1/DTD/svg11.dtd">
<svg version="1.1" id="图层_1" xmlns="http://www.w3.org/2000/svg" xmlns:xlink="http://www.w3.org/1999/xlink" x="0px" y="0px"
	 width="195px" height="46px" viewBox="0 0 195 46" enable-background="new 0 0 195 46" xml:space="preserve">
<g>
	<path fill="#FFFFFF" d="M3.37,21.093c0-2.354-0.37-2.816-1.663-3.506L0.83,17.125c-0.275-0.093-0.368-0.139-0.368-0.323v-0.277
		c0-0.184,0.092-0.277,0.368-0.415L5.4,13.753c0.277-0.136,0.461-0.184,0.646-0.184c0.275,0,0.323,0.278,0.323,0.554l0.23,3.278
		h0.187c1.384-2.124,3.552-4.016,5.537-4.016c1.568,0,2.354,0.971,2.354,2.031c0,1.338-1.109,2.261-1.938,2.261
		c-0.506,0-0.969-0.184-1.338-0.368c-0.368-0.231-0.923-0.372-1.522-0.372c-0.739,0-1.938,0.463-2.724,1.939
		c-0.276,0.507-0.463,1.339-0.463,1.477v9.603c0,1.429,0.323,1.892,1.292,1.892h2.171c0.279,0,0.324,0.138,0.324,0.416v0.829
		c0,0.277-0.045,0.415-0.231,0.415c-0.277,0-2.401-0.138-4.893-0.138c-2.861,0-4.799,0.138-5.077,0.138
		C0.091,33.509,0,33.418,0,33.048v-0.783c0-0.325,0.091-0.416,0.509-0.416h1.799c0.692,0,1.016-0.277,1.016-0.878
		c0.046-1.523,0.046-3.138,0.046-5.537V21.093z"/>
	<path fill="#FFFFFF" d="M22.939,30.739c-2.122-2.538-2.539-4.246-2.539-7.523c0-2.354,1.247-5.308,3.97-7.431
		c2.399-1.846,4.662-2.216,6.186-2.216c2.538,0,5.076,1.294,6.461,2.677c2.078,2.125,3.14,4.523,3.14,7.524
		c0,5.031-4.525,10.153-10.203,10.153C27.738,33.924,24.879,33.048,22.939,30.739 M36.278,23.309c0-5.125-3.738-8.354-6.091-8.354
		c-1.248,0-2.449,0.276-3.557,1.477c-1.797,1.845-2.444,3.739-2.444,7.247c0,2.584,0.276,4.339,1.755,6.462
		c1.061,1.523,2.398,2.398,4.568,2.398C34.02,32.539,36.278,28.248,36.278,23.309"/>
	<path fill="#FFFFFF" d="M49.387,32.586c-0.23-0.139-0.23-0.415-0.276-0.646l-0.783-4.384c-0.048-0.231,0.091-0.322,0.274-0.37
		l0.603-0.14c0.183-0.045,0.322,0.047,0.413,0.278l1.154,2.262c0.925,1.708,1.57,2.861,4.016,2.861c1.615,0,3.646-0.968,3.646-3.14
		c0-2.074-1.014-3.276-4.477-4.246c-2.723-0.783-5.444-2.215-5.444-5.859c0-3.186,3-5.633,6.46-5.633
		c2.216,0,3.417,0.555,4.246,0.97c0.693,0.323,0.786,0.553,0.832,0.831l0.692,3.231c0,0.186-0.092,0.323-0.322,0.416l-0.556,0.186
		c-0.184,0.045-0.276,0-0.415-0.232l-1.568-2.122c-0.555-0.878-1.432-1.8-3.232-1.8c-1.753,0-3.553,1.061-3.553,3.045
		c0,2.677,2.169,3.186,4.43,3.83c3.37,0.969,5.492,2.354,5.538,5.909c-0.045,3.738-3.091,6.093-7.014,6.093
		C51.787,33.926,49.943,33.003,49.387,32.586"/>
	<path fill="#FFFFFF" d="M72.744,21.093c-0.093,0.416-0.14,1.154-0.14,2.215c0,4.524,2.861,7.941,6.553,7.941
		c2.816,0,4.801-1.618,5.584-3.142c0.095-0.184,0.279-0.275,0.416-0.23l0.6,0.323c0.139,0.048,0.23,0.184,0,0.691
		c-0.83,1.847-3.23,5.031-7.339,5.031c-2.629,0-5.537-0.783-7.245-3.277c-1.617-2.352-2.031-4.061-2.031-7.291
		c0-1.801,0.461-4.893,2.907-7.339c1.986-2.031,4.292-2.446,6.601-2.446c5.309,0,6.786,4.984,6.786,6.783
		c0,0.647-0.555,0.739-1.294,0.739H72.744z M80.081,19.709c0.875,0,1.246-0.231,1.246-0.646c0-1.061-0.554-4.107-3.555-4.107
		c-2.03,0-3.968,1.338-4.844,4.754H80.081z"/>
	<path fill="#FFFFFF" d="M95.866,30.739c-2.123-2.538-2.538-4.246-2.538-7.523c0-2.354,1.246-5.308,3.97-7.431
		c2.4-1.846,4.658-2.216,6.186-2.216c2.537,0,5.076,1.294,6.461,2.677c2.075,2.125,3.138,4.523,3.138,7.524
		c0,5.031-4.522,10.153-10.2,10.153C100.666,33.924,97.805,33.048,95.866,30.739 M109.204,23.309c0-5.125-3.738-8.354-6.093-8.354
		c-1.242,0-2.445,0.276-3.553,1.477c-1.799,1.845-2.445,3.739-2.445,7.247c0,2.584,0.275,4.339,1.752,6.462
		c1.062,1.523,2.401,2.398,4.571,2.398C106.943,32.539,109.204,28.248,109.204,23.309"/>
	<path fill="#FFFFFF" d="M139.762,30.878c0,0.738,0.415,0.971,1.016,0.971h1.476c0.415,0,0.508,0.138,0.508,0.413v0.741
		c0,0.322-0.093,0.506-0.369,0.506c-0.322,0-1.755-0.137-4.384-0.137c-2.354,0-3.833,0.137-4.156,0.137
		c-0.275,0-0.368-0.137-0.368-0.506v-0.741c0-0.322,0.14-0.413,0.602-0.413h1.337c0.509,0,0.877-0.232,0.922-1.063
		c0.048-1.199,0.094-2.677,0.094-3.878v-6.091c0-1.846,0-3.183-1.338-4.152c-1.108-0.833-2.216-0.833-3.37-0.833
		c-0.738,0-2.354,0.324-3.739,1.801c-0.92,1.014-1.062,2.26-1.062,3.138v9.556c0,1.245,0.142,1.522,1.108,1.522h1.154
		c0.368,0,0.462,0.138,0.462,0.461v0.786c0,0.276-0.094,0.413-0.324,0.413c-0.322,0-1.568-0.137-4.014-0.137
		c-2.354,0-3.833,0.137-4.109,0.137c-0.23,0-0.323-0.137-0.323-0.413v-0.834c0-0.275,0.093-0.413,0.463-0.413h1.338
		c0.599,0,0.922-0.14,0.922-0.925V20.125c0-1.386-0.738-2.169-1.893-2.724l-0.367-0.185c-0.322-0.138-0.37-0.279-0.37-0.415V16.57
		c0-0.23,0.185-0.37,0.414-0.46l3.97-2.216c0.368-0.184,0.646-0.324,0.832-0.324c0.229,0,0.322,0.186,0.37,0.556l0.32,2.812h0.094
		c1.338-1.66,4.016-3.368,6.323-3.368c1.385,0,2.816,0.278,3.924,1.017c1.383,0.923,2.539,3.231,2.539,4.384V30.878z"/>
	<path fill="#FFFFFF" d="M156.007,19.617c0,2.399,0,9.368,0.049,10.801c0.044,0.783,0.229,1.429,1.198,1.429h2.077
		c0.415,0,0.508,0.14,0.508,0.415v0.785c0,0.278-0.093,0.462-0.276,0.462c-0.322,0-2.353-0.138-5.215-0.138
		c-2.957,0-4.8,0.138-5.216,0.138c-0.23,0-0.325-0.184-0.325-0.462v-0.785c0-0.322,0.095-0.415,0.603-0.415h2.216
		c0.507,0,0.969-0.322,1.016-1.153c0.044-1.43,0.044-9.37,0.044-12.046V15.74c0-3.276-0.044-7.477-0.14-8.678
		c-0.091-1.568-0.828-2.308-2.307-2.769l-0.922-0.322c-0.231-0.093-0.275-0.139-0.275-0.23v-0.37c0-0.139,0.138-0.231,0.412-0.324
		c1.616-0.738,3.696-1.569,5.399-2.678C155.271,0.092,155.545,0,155.822,0c0.323,0,0.417,0.232,0.372,0.831
		c-0.049,2.54-0.188,12.139-0.188,14.678V19.617z"/>
	<path fill="#FFFFFF" d="M165.194,43.57c0-0.97,1.014-1.8,2.123-1.8c0.876,0,1.706,0.416,2.121,0.508
		c0.323,0.045,0.694,0,0.97-0.278c0.692-0.831,3.047-6.092,3.692-7.891c-0.23-1.154-5.123-15.602-5.492-16.569
		c-0.553-1.153-0.97-1.939-2.167-1.939h-1.204c-0.321,0-0.367-0.139-0.367-0.415v-0.922c0-0.186,0.046-0.324,0.367-0.324
		c0.418,0,1.524,0.138,4.247,0.138c2.355,0,3.787-0.138,4.292-0.138c0.371,0,0.417,0.138,0.417,0.324v0.967
		c0,0.23-0.046,0.37-0.277,0.37h-0.877c-0.508,0-0.691,0.325-0.601,1.015c0.138,1.017,3.278,11.217,3.785,12.233h0.185
		c0.46-0.74,4.476-10.341,4.754-11.494c0.277-1.155-0.09-1.754-0.786-1.754h-0.736c-0.277,0-0.324-0.139-0.324-0.37v-0.923
		c0-0.23,0.047-0.368,0.278-0.368c0.598,0,1.568,0.138,3.785,0.138c1.246,0,2.309-0.138,2.815-0.138
		c0.276,0,0.276,0.184,0.276,0.368v0.878c0,0.276,0,0.415-0.232,0.415H185.5c-0.507,0-1.152,0.23-1.613,0.831
		c-1.015,1.246-4.062,8.307-7.247,15.554c-2.263,5.122-4.063,9.415-4.893,10.938c-0.646,1.2-1.477,3-3.922,3
		C166.067,45.924,165.194,44.956,165.194,43.57"/>
	<path fill="#FFFFFF" d="M189.194,31.201c0-0.783,0.553-2.586,2.86-2.586c1.341,0,2.585,1.064,2.585,2.771
		c0,1.522-1.153,2.54-2.585,2.54C191.04,33.926,189.194,33.373,189.194,31.201"/>
</g>
</svg>
